<?xml version="1.0" standalone="no"?>
<!DOCTYPE svg PUBLIC "-//W3C//DTD SVG 20010904//EN"
 "http://www.w3.org/TR/2001/REC-SVG-20010904/DTD/svg10.dtd">
<svg version="1.0" xmlns="http://www.w3.org/2000/svg"
 width="1080.000000pt" height="1080.000000pt" viewBox="0 0 1080.000000 1080.000000"
 preserveAspectRatio="xMidYMid meet">
<metadata>
Created by potrace 1.14, written by Peter Selinger 2001-2017
</metadata>
<g transform="translate(0.000000,1080.000000) scale(0.100000,-0.100000)"
fill="#000000" stroke="none">
<path d="M5128 10795 c-1 -1 -46 -6 -98 -9 -148 -10 -276 -22 -370 -37 -36 -6
-83 -13 -105 -16 -50 -6 -328 -61 -375 -73 -19 -5 -46 -11 -60 -14 -80 -14
-387 -107 -545 -164 -243 -88 -603 -247 -687 -305 -16 -10 -28 -16 -28 -13 0
4 -18 -5 -40 -19 -22 -14 -42 -25 -45 -25 -5 0 -65 -36 -131 -77 -10 -7 -35
-21 -54 -32 -33 -18 -241 -153 -285 -185 -309 -223 -444 -337 -704 -596 -237
-235 -324 -333 -510 -575 -17 -22 -35 -45 -41 -52 -5 -7 -10 -16 -10 -22 0 -5
-4 -11 -8 -13 -5 -1 -45 -57 -90 -123 -45 -66 -86 -125 -92 -132 -5 -7 -10
-15 -10 -17 0 -3 -15 -29 -34 -58 -101 -159 -272 -484 -346 -658 -17 -41 -38
-88 -45 -105 -63 -141 -211 -579 -240 -708 -2 -12 -9 -42 -16 -67 -6 -25 -12
-49 -13 -55 -2 -5 -6 -21 -9 -35 -4 -14 -9 -36 -11 -50 -3 -14 -16 -81 -29
-150 -14 -69 -28 -143 -31 -165 -11 -76 -25 -180 -31 -240 -4 -33 -8 -71 -11
-85 -11 -73 -19 -276 -19 -530 0 -333 8 -445 51 -765 62 -459 230 -1031 430
-1465 131 -284 359 -682 486 -852 7 -9 20 -26 28 -38 47 -69 199 -265 244
-317 6 -7 16 -18 21 -25 23 -30 164 -188 230 -256 108 -114 156 -162 159 -162
2 0 32 -28 68 -62 58 -55 88 -83 184 -165 12 -10 41 -34 64 -53 24 -19 48 -40
54 -45 121 -109 618 -440 799 -531 331 -167 364 -183 552 -259 114 -47 431
-158 481 -170 11 -2 60 -16 109 -30 93 -27 115 -33 150 -40 11 -3 70 -16 130
-29 106 -24 357 -68 460 -81 28 -3 64 -8 80 -10 267 -36 846 -41 1139 -10 25
3 65 7 89 10 38 4 118 15 222 30 34 5 160 28 230 41 35 7 140 30 170 37 74 19
154 39 174 43 14 3 28 7 33 10 4 3 17 7 28 10 43 9 59 14 185 55 72 24 132 43
135 44 6 2 10 4 165 62 107 41 157 62 260 108 96 43 385 190 470 240 112 65
264 159 282 175 7 5 16 10 22 10 5 0 11 3 13 8 2 4 30 25 63 47 33 22 81 56
106 75 25 19 57 42 69 50 13 8 75 58 139 110 64 52 121 98 126 102 148 117
443 414 615 619 25 29 52 60 60 69 8 8 26 31 40 50 13 19 27 37 30 40 12 9
175 234 237 325 75 113 200 316 219 358 8 18 30 59 50 92 42 73 134 260 134
273 0 5 7 15 15 22 8 7 15 18 15 26 0 7 13 41 29 76 115 247 271 728 325 998
3 14 14 71 25 127 23 114 57 328 66 418 4 33 8 76 11 95 26 218 25 878 -1
1043 -2 12 -6 49 -10 82 -10 96 -15 139 -19 160 -6 31 -16 97 -21 130 -14 108
-83 416 -126 563 -46 161 -89 295 -99 314 -6 10 -10 23 -10 29 0 15 -122 321
-166 416 -58 126 -195 396 -215 425 -11 14 -19 29 -19 32 0 9 -136 230 -204
331 -127 189 -321 441 -431 560 -16 18 -55 61 -87 96 -51 58 -208 220 -208
215 0 -1 -29 25 -63 58 -83 80 -143 133 -196 176 -24 19 -51 42 -60 51 -9 9
-70 57 -136 108 -66 50 -126 96 -133 102 -7 5 -67 48 -135 93 -408 277 -823
484 -1292 646 -153 52 -376 118 -465 136 -13 3 -60 14 -105 24 -93 22 -235 49
-285 56 -19 2 -60 9 -90 14 -30 5 -79 12 -109 15 -30 4 -62 8 -72 10 -10 2
-58 7 -106 10 -48 4 -101 9 -118 12 -34 5 -661 13 -667 8z"/>
</g>
</svg>
